<?xml version="1.0" encoding="utf-8"?>
<!-- PotcFdk, 2014 -->
<!DOCTYPE svg PUBLIC "-//W3C//DTD SVG 1.1//EN" "http://www.w3.org/Graphics/SVG/1.1/DTD/svg11.dtd">
<svg version="1.1" id="Ebene_1" xmlns="http://www.w3.org/2000/svg" xmlns:xlink="http://www.w3.org/1999/xlink" x="0px" y="0px"
	 width="512px" height="512px" viewBox="0 0 512 512" enable-background="new 0 0 512 512" xml:space="preserve">
<g>
	<path d="M4.309,256.165c0-44.624,11.154-86.461,33.469-125.511c22.31-39.044,52.992-69.836,92.041-92.375
		C168.864,15.744,210.925,4.474,256,4.474c44.625,0,86.461,11.16,125.511,33.469c39.044,22.315,69.836,52.997,92.376,92.042
		c22.534,39.049,33.804,81.111,33.804,126.18c0,43.96-10.825,85.238-32.465,123.837c-21.646,38.605-51.993,69.506-91.037,92.711
		c-39.05,23.209-81.781,34.809-128.189,34.809c-46.188,0-88.809-11.549-127.854-34.643c-39.049-23.094-69.449-53.938-91.205-92.543
		C15.187,341.736,4.309,300.344,4.309,256.165z M39.452,256.165c0,38.605,9.707,74.695,29.119,108.273
		c19.412,33.586,45.905,60.027,79.49,79.324c33.579,19.303,69.559,28.951,107.939,28.951c38.825,0,74.857-9.707,108.107-29.119
		c33.244-19.412,59.628-45.686,79.155-78.82c19.522-33.135,29.286-69.334,29.286-108.609c0-38.825-9.706-74.856-29.119-108.106
		c-19.412-33.245-45.686-59.628-78.82-79.155C331.474,49.381,295.27,39.617,256,39.617c-38.825,0-74.862,9.706-108.106,29.118
		c-33.25,19.413-59.633,45.686-79.155,78.821C49.21,180.691,39.452,216.896,39.452,256.165z M269.723,146.385
		c-27.895,0-49.368,9.706-64.43,29.119c-15.061,19.412-22.592,46.303-22.592,80.661c0,37.486,7.081,65.265,21.253,83.339
		c14.167,18.074,35.864,27.109,65.098,27.109c19.188,0,42.727-5.02,70.621-15.061v41.502c-10.71,4.467-21.703,8.258-32.968,11.379
		c-11.27,3.129-24.715,4.688-40.331,4.688c-43.291,0-76.535-13.441-99.739-40.332c-23.209-26.885-34.808-64.428-34.808-112.625
		c0-46.632,12.326-83.674,36.984-111.119c24.652-27.445,58.29-41.167,100.911-41.167c28.559,0,56.004,6.694,82.335,20.082
		l-19.412,39.494C308.547,152.075,287.571,146.385,269.723,146.385z"/>
</g>
</svg>
